<svg xmlns="http://www.w3.org/2000/svg" viewBox="0 0 68.5 65.5">
  <defs>
    <style>.cls-1, .cls-2, .cls-3 {
      fill: none;
    }

    .cls-1, .cls-2 {
      stroke: #000;
      stroke-miterlimit: 10;
    }

    .cls-1 {
      stroke-width: 2px;
    }

    .cls-3 {
      stroke: #292d32;
      stroke-linecap: round;
      stroke-linejoin: round;
    }</style>
  </defs>
  <g id="Ebene_2" data-name="Ebene 2">
    <g id="Ebene_1-2" data-name="Ebene 1">
      <line class="cls-1" y1="64.5" x2="57" y2="64.5"/>
      <rect class="cls-2" x="5" y="0.5" width="47" height="64" rx="3.75"/>
      <g id="SVGRepo_iconCarrier" data-name="SVGRepo iconCarrier">
        <path class="cls-3"
              d="M19.75,33.76h4.39V44.88c0,2.6,1.3,3.12,2.88,1.18L37.78,32.77c1.32-1.62.77-3-1.24-3H32.15V18.68c0-2.6-1.29-3.12-2.87-1.18L18.51,30.79C17.2,32.43,17.76,33.76,19.75,33.76Z"/>
      </g>
      <path class="cls-3" d="M52,50.45s-1.09,6.95,7,6.95,9-6.95,9-6.95V12.5s-.05-2.89-8-8.95"/>
      <path class="cls-3" d="M62,19.7V30.48"/>
      <path class="cls-3" d="M62,19.7c0-1.49,2.68-2.7,6-2.7"/>
      <path class="cls-3" d="M62,30.48c0,1.12,2.68,2,6,2"/>
    </g>
  </g>
</svg>
