<svg xmlns="http://www.w3.org/2000/svg" viewBox="0 0 65.86 81.2">
  <defs>
    <style>.cls-1 {
      fill: none;
      stroke: #000;
      stroke-miterlimit: 10;
    }</style>
  </defs>
  <g id="Ebene_2" data-name="Ebene 2">
    <g id="Ebene_1-2" data-name="Ebene 1">
      <polyline class="cls-1" points="34.12 61.73 2.85 79.44 16.68 46.15 16.68 18.7 16.68 0"/>
      <line class="cls-1" x1="2.85" y1="79.44" x2="34.12" y2="61.73"/>
      <polyline class="cls-1" points="32.08 62.34 63.35 80.05 49.51 46.76 49.51 19.31 49.51 0"/>
      <line class="cls-1" x1="63.35" y1="80.05" x2="32.08" y2="62.34"/>
      <line class="cls-1" x1="32.43" y1="62.7" x2="50.62" y2="49.44"/>
      <line class="cls-1" x1="32.85" y1="62.77" x2="15.07" y2="49.44"/>
      <polyline class="cls-1" points="50.07 0.56 16.74 0.56 0.78 9.44"/>
      <polyline class="cls-1" points="16.33 0.56 49.66 0.56 65.62 9.44"/>
      <line class="cls-1" x1="0.63" y1="9.44" x2="65.07" y2="9.44"/>
      <line class="cls-1" x1="1.74" y1="9.44" x2="1.74" y2="11.67"/>
      <line class="cls-1" x1="62.84" y1="9.44" x2="62.84" y2="11.67"/>
      <polyline class="cls-1" points="49.53 14.3 16.2 14.3 0.24 23.19"/>
      <polyline class="cls-1" points="15.8 14.3 49.13 14.3 65.09 23.19"/>
      <line class="cls-1" x1="0.09" y1="23.19" x2="64.53" y2="23.19"/>
      <line class="cls-1" x1="1.66" y1="22.79" x2="1.66" y2="25.55"/>
      <line class="cls-1" x1="62.76" y1="22.79" x2="62.76" y2="25.55"/>
    </g>
  </g>
</svg>
