<svg xmlns="http://www.w3.org/2000/svg" viewBox="0 0 77.88 85"><defs><style>.cls-1{fill:none;}.cls-1,.cls-2{stroke:#000;stroke-miterlimit:10;}</style></defs><g id="Ebene_2" data-name="Ebene 2"><g id="Ebene_1-2" data-name="Ebene 1"><rect class="cls-1" x="7.88" y="0.5" width="69.5" height="84"/><circle class="cls-1" cx="42.5" cy="58.11" r="19"/><polyline class="cls-1" points="51.92 41.62 42.5 58.12 55.58 71.89"/><line class="cls-1" x1="24.75" y1="64.91" x2="42.5" y2="58.11"/><circle class="cls-2" cx="42.5" cy="58.11" r="2"/><line class="cls-1" y1="11.11" x2="3" y2="11.11"/><line class="cls-1" x1="6" y1="11.11" x2="9" y2="11.11"/><line class="cls-1" x1="12" y1="11.11" x2="15" y2="11.11"/><line class="cls-1" y1="34.11" x2="3" y2="34.11"/><line class="cls-1" x1="6" y1="34.11" x2="9" y2="34.11"/><line class="cls-1" x1="12" y1="34.11" x2="15" y2="34.11"/><line class="cls-1" x1="22" y1="11.11" x2="63" y2="11.11"/><line class="cls-1" x1="22" y1="34.11" x2="63" y2="34.11"/><line class="cls-1" x1="22" y1="19.11" x2="63" y2="19.11"/><line class="cls-1" x1="22" y1="26.11" x2="63" y2="26.11"/><ellipse class="cls-1" cx="62" cy="15.11" rx="4.5" ry="4"/><ellipse class="cls-1" cx="23" cy="22.61" rx="4.5" ry="3.5"/><ellipse class="cls-1" cx="62" cy="30.11" rx="4.5" ry="4"/></g></g></svg>